# xmcd
#
# Track frame offsets:
#	150
#	17635
#	36392
#	56975
#	76712
#	93457
#	110645
#	129400
#	147702
#	168310
#	181467
#	201827
#
# Disc length: 3103 seconds
#
# Revision: 6
# Processed by: cddbd v1.5.2PL0 Copyright (c) Steve Scherf et al.
# Submitted via: audiograbber 1.83.01
#
DISCID=ab0c1d0c
DTITLE=Lee Ann Womack - There's More Where That Came From
DYEAR=2005
DGENRE=Country
TTITLE0=There's More Where That Came From
TTITLE1=One's A Couple
TTITLE2=I May Hate Myself In The Morning
TTITLE3=The Last Time
TTITLE4=He Oughta Know That By Now
TTITLE5=Twenty Years And Two Husbands Ago
TTITLE6=Happiness
TTITLE7=When You Get To Me
TTITLE8=Painless
TTITLE9=What I Miss About Heaven
TTITLE10=Waiting For The Sun To Shine
TTITLE11=Stubborn (Psalm 151)
EXTD=ID3G: 2
EXTT0=
EXTT1=
EXTT2=
EXTT3=
EXTT4=
EXTT5=
EXTT6=
EXTT7=
EXTT8=
EXTT9=
EXTT10=
EXTT11=
PLAYORDER=
